<?xml version="1.0" encoding="utf-8"?>
<!-- Generator: Adobe Illustrator 27.9.0, SVG Export Plug-In . SVG Version: 6.00 Build 0)  -->
<svg version="1.1" id="Camada_1" xmlns="http://www.w3.org/2000/svg" xmlns:xlink="http://www.w3.org/1999/xlink" x="0px" y="0px"
	 viewBox="0 0 609.59 84.17" style="enable-background:new 0 0 609.59 84.17;" xml:space="preserve">
<style type="text/css">
	.st0{fill:#F4F4F4;}
	.st1{fill:#235883;}
	.st2{fill:#FFFFFF;}
	.st3{fill:#FFC607;}
</style>
<g>
	<g>
		<path class="st1" d="M62.02,0.01H19.96v19.72H0v64.44h37.86V22.1h6.2c2.86,0,5.17,2.28,5.17,5.1v56.97h12.78V0.01z"/>
		<path class="st2" d="M44.06,22.1h-6.2v62.07h11.37V27.2C49.23,24.38,46.92,22.1,44.06,22.1z"/>
		<polygon class="st3" points="19.96,0 19.96,0.01 19.96,0.01 		"/>
		<polygon class="st3" points="19.96,0.01 19.96,0.01 0,19.73 19.96,19.73 		"/>
	</g>
	<g>
		<path class="st1" d="M131.08,16.81v14.93c0,2.09-1.7,3.79-3.79,3.79h-7.37V16.81c0-2.06-2.01-3.74-4.46-3.74
			c-2.46,0-4.46,1.69-4.46,3.74v50.55c0,2.06,2.01,3.74,4.46,3.74c2.45,0,4.46-1.69,4.46-3.74V48.64h7.37c2.09,0,3.79,1.7,3.79,3.79
			v14.93c0,7.96-6.58,13.11-15.62,13.11c-9.04,0-15.62-5.15-15.62-13.11V16.81c0-7.96,6.58-13.11,15.62-13.11
			C124.49,3.7,131.08,8.85,131.08,16.81z"/>
		<path class="st1" d="M307.08,16.81v14.93c0,2.09-1.7,3.79-3.79,3.79h-7.37V16.81c0-2.06-2.01-3.74-4.46-3.74
			c-2.46,0-4.46,1.69-4.46,3.74v50.55c0,2.06,2.01,3.74,4.46,3.74c2.45,0,4.46-1.69,4.46-3.74V48.64h7.37c2.09,0,3.79,1.7,3.79,3.79
			v14.93c0,7.96-6.58,13.11-15.62,13.11c-9.04,0-15.62-5.15-15.62-13.11V16.81c0-7.96,6.58-13.11,15.62-13.11
			C300.49,3.7,307.08,8.85,307.08,16.81z"/>
		<path class="st1" d="M145.72,4.64c2.57,0,4.65,2.08,4.65,4.65v58.07c0,2.06,1.67,3.74,4.13,3.74c2.79,0,4.8-1.78,4.8-4.49V4.64
			h6.5c2.57,0,4.65,2.08,4.65,4.65v70.24h-10.49l0.89-7.02h-1.34c-1.67,5.15-5.36,7.96-10.38,7.96c-6.47,0-9.93-4.12-9.93-10.67
			V4.64H145.72z"/>
		<path class="st1" d="M321.72,4.64c2.57,0,4.65,2.08,4.65,4.65v58.07c0,2.06,1.67,3.74,4.13,3.74c2.79,0,4.8-1.78,4.8-4.49V4.64
			h6.5c2.57,0,4.65,2.08,4.65,4.65v70.24h-10.49l0.89-7.02h-1.34c-1.67,5.15-5.36,7.96-10.38,7.96c-6.47,0-9.93-4.12-9.93-10.67
			V4.64H321.72z"/>
		<path class="st1" d="M210.62,14.38v21.16h-7.21c-2.18,0-3.95-1.77-3.95-3.95V16.81c0-2.06-1.67-3.74-4.13-3.74
			c-2.79,0-4.8,1.78-4.8,4.49v61.97h-11.16V4.64h10.49l-0.89,7.02h1.34c1.67-5.15,5.36-7.96,10.38-7.96
			C207.16,3.7,210.62,7.82,210.62,14.38z"/>
		<path class="st1" d="M249.45,14.38v21.16h-7.21c-2.18,0-3.95-1.77-3.95-3.95V16.81c0-2.06-1.67-3.74-4.13-3.74
			c-2.79,0-4.8,1.78-4.8,4.49v61.97h-11.16V4.64h10.49l-0.89,7.02h1.34c1.67-5.15,5.36-7.96,10.38-7.96
			C245.99,3.7,249.45,7.82,249.45,14.38z"/>
		<path class="st1" d="M257.02,17.28V7.75c0-1.92,1.55-3.47,3.47-3.47h9.53L257.02,17.28z"/>
		<path class="st1" d="M362.52,4.64c2.21,0,4.01,1.79,4.01,4.01v59c0,1.5,1,2.53,3.24,2.53h11.83v9.36h-16.07
			c-6.03,0-10.15-3.37-10.15-8.14V4.64H362.52z"/>
		<path class="st1" d="M590.52,4.64c2.21,0,4.01,1.79,4.01,4.01v59c0,1.5,1,2.53,3.24,2.53h11.83v9.36h-16.07
			c-6.03,0-10.15-3.37-10.15-8.14V4.64H590.52z"/>
		<path class="st1" d="M417.4,16.81v50.55c0,7.96-6.58,13.11-15.62,13.11c-9.04,0-15.62-5.15-15.62-13.11V16.81
			c0-7.96,6.58-13.11,15.62-13.11C410.81,3.7,417.4,8.85,417.4,16.81z M397.31,16.81v50.55c0,2.06,2.01,3.74,4.46,3.74
			c2.45,0,4.46-1.69,4.46-3.74V16.81c0-2.06-2.01-3.74-4.46-3.74C399.32,13.07,397.31,14.75,397.31,16.81z"/>
		<path class="st1" d="M457,9.71v69.82h-11.16V4.64h6.08C454.73,4.64,457,6.91,457,9.71z"/>
		<path class="st1" d="M481.55,4.64c9.04,0,15.62,5.15,15.62,13.11v48.68c0,7.96-6.58,13.11-15.62,13.11h-15.62V4.64H481.55z
			 M477.08,70.17h4.46c2.46,0,4.46-1.69,4.46-3.74V17.75c0-2.06-2.01-3.74-4.46-3.74h-4.46V70.17z"/>
		<path class="st1" d="M536.22,16.81v17.41c0,7.58-4.8,12.54-12.05,12.54c-3.79,0-5.69-1.03-7.36-2.15h-1.34l0.67,3.93v18.82
			c0,2.06,2.01,3.74,4.46,3.74c2.45,0,4.46-1.69,4.46-3.74v-8.21c0-2.71,2.19-4.9,4.9-4.9h6.26v13.11c0,7.96-6.58,13.11-15.62,13.11
			s-15.62-5.15-15.62-13.11V16.81c0-7.96,6.58-13.11,15.62-13.11S536.22,8.85,536.22,16.81z M516.13,16.81v19.28
			c0.89,0.84,2.23,1.31,4.46,1.31c2.45,0,4.46-1.69,4.46-3.74V16.81c0-2.06-2.01-3.74-4.46-3.74
			C518.14,13.07,516.13,14.75,516.13,16.81z"/>
		<path class="st1" d="M574.6,16.81v62.72h-10.49l0.89-7.02h-1.34c-1.67,5.15-5.36,7.96-10.38,7.96c-6.47,0-9.93-4.12-9.93-10.67
			V48.08c0-6.55,3.46-10.67,9.93-10.67c5.02,0,8.7,2.81,10.38,7.96H565l-1.56-8.89V16.81c0-2.06-2.01-3.74-4.46-3.74
			c-2.45,0-4.46,1.69-4.46,3.74v8.96c0,2.29-1.86,4.15-4.15,4.15h-7.01V16.81c0-7.96,6.58-13.11,15.62-13.11
			C568.01,3.7,574.6,8.85,574.6,16.81z M554.51,50.51v16.85c0,2.06,1.67,3.74,4.13,3.74c2.79,0,4.8-1.78,4.8-4.49V51.26
			c0-2.71-2.01-4.49-4.8-4.49C556.18,46.77,554.51,48.45,554.51,50.51z"/>
		<g>
			<path class="st1" d="M268,26.71c0-2.8-2.27-5.07-5.07-5.07h-6.08v57.89H268V26.71z"/>
		</g>
	</g>
</g>
</svg>
